<svg width="437" height="323" viewBox="0 0 437 323" fill="none" xmlns="http://www.w3.org/2000/svg">
<g filter="url(#filter0_d_535_1066)">
<rect x="38" y="19" width="361" height="246.683" rx="32.0414" fill="white"/>
</g>
<path d="M318.044 94.5297V95.7343L311.059 111.395H308.8L315.773 96.2904H306.645V94.5297H318.044ZM322.619 109.6H322.839C324.075 109.6 325.079 109.426 325.851 109.078C326.623 108.731 327.218 108.264 327.635 107.677C328.052 107.09 328.337 106.43 328.492 105.696C328.646 104.955 328.723 104.194 328.723 103.414V100.831C328.723 100.067 328.635 99.387 328.457 98.7924C328.287 98.1978 328.048 97.6997 327.739 97.2981C327.438 96.8966 327.094 96.5915 326.708 96.383C326.322 96.1745 325.913 96.0703 325.48 96.0703C324.986 96.0703 324.542 96.1707 324.148 96.3714C323.762 96.5645 323.434 96.8386 323.163 97.1939C322.901 97.5491 322.7 97.9661 322.561 98.4449C322.422 98.9237 322.353 99.4449 322.353 100.009C322.353 100.511 322.414 100.997 322.538 101.468C322.661 101.939 322.851 102.364 323.106 102.742C323.36 103.121 323.677 103.422 324.055 103.646C324.441 103.862 324.893 103.97 325.411 103.97C325.889 103.97 326.337 103.877 326.754 103.692C327.179 103.499 327.554 103.24 327.878 102.916C328.21 102.584 328.472 102.209 328.666 101.792C328.866 101.375 328.982 100.939 329.013 100.484H330.032C330.032 101.125 329.905 101.758 329.65 102.383C329.403 103.001 329.056 103.565 328.608 104.074C328.16 104.584 327.635 104.993 327.032 105.302C326.43 105.603 325.774 105.754 325.063 105.754C324.229 105.754 323.507 105.592 322.897 105.268C322.287 104.943 321.785 104.511 321.391 103.97C321.005 103.43 320.715 102.827 320.522 102.163C320.337 101.491 320.244 100.812 320.244 100.124C320.244 99.3213 320.356 98.5684 320.58 97.8657C320.804 97.163 321.136 96.5452 321.576 96.0123C322.017 95.4718 322.561 95.0509 323.21 94.7498C323.866 94.4486 324.623 94.298 325.48 94.298C326.445 94.298 327.268 94.4911 327.947 94.8772C328.627 95.2633 329.179 95.7807 329.604 96.4294C330.036 97.078 330.353 97.8078 330.554 98.6186C330.754 99.4295 330.855 100.263 330.855 101.121V101.897C330.855 102.769 330.797 103.657 330.681 104.561C330.573 105.457 330.361 106.314 330.044 107.132C329.735 107.951 329.283 108.685 328.689 109.333C328.094 109.974 327.318 110.484 326.36 110.862C325.411 111.233 324.237 111.418 322.839 111.418H322.619V109.6ZM333.646 98.665V97.773C333.646 97.1321 333.785 96.549 334.063 96.0239C334.341 95.4988 334.739 95.078 335.257 94.7613C335.774 94.4447 336.388 94.2864 337.098 94.2864C337.824 94.2864 338.442 94.4447 338.952 94.7613C339.469 95.078 339.867 95.4988 340.145 96.0239C340.423 96.549 340.562 97.1321 340.562 97.773V98.665C340.562 99.2905 340.423 99.8658 340.145 100.391C339.874 100.916 339.481 101.337 338.963 101.653C338.454 101.97 337.84 102.128 337.121 102.128C336.403 102.128 335.782 101.97 335.257 101.653C334.739 101.337 334.341 100.916 334.063 100.391C333.785 99.8658 333.646 99.2905 333.646 98.665ZM335.257 97.773V98.665C335.257 99.0202 335.322 99.3561 335.453 99.6727C335.592 99.9893 335.801 100.248 336.079 100.449C336.357 100.642 336.704 100.738 337.121 100.738C337.538 100.738 337.882 100.642 338.152 100.449C338.423 100.248 338.623 99.9893 338.755 99.6727C338.886 99.3561 338.952 99.0202 338.952 98.665V97.773C338.952 97.4101 338.882 97.0703 338.743 96.7537C338.612 96.4294 338.407 96.1707 338.129 95.9776C337.859 95.7768 337.515 95.6764 337.098 95.6764C336.689 95.6764 336.345 95.7768 336.067 95.9776C335.797 96.1707 335.592 96.4294 335.453 96.7537C335.322 97.0703 335.257 97.4101 335.257 97.773ZM341.859 108.163V107.26C341.859 106.627 341.998 106.047 342.276 105.522C342.554 104.997 342.952 104.576 343.469 104.26C343.987 103.943 344.6 103.785 345.311 103.785C346.037 103.785 346.655 103.943 347.164 104.26C347.682 104.576 348.079 104.997 348.357 105.522C348.635 106.047 348.774 106.627 348.774 107.26V108.163C348.774 108.797 348.635 109.376 348.357 109.901C348.087 110.426 347.693 110.847 347.176 111.163C346.666 111.48 346.052 111.638 345.334 111.638C344.616 111.638 343.998 111.48 343.481 111.163C342.963 110.847 342.562 110.426 342.276 109.901C341.998 109.376 341.859 108.797 341.859 108.163ZM343.469 107.26V108.163C343.469 108.519 343.535 108.858 343.666 109.183C343.805 109.499 344.014 109.758 344.292 109.959C344.57 110.152 344.917 110.248 345.334 110.248C345.751 110.248 346.095 110.152 346.365 109.959C346.643 109.758 346.848 109.499 346.979 109.183C347.11 108.866 347.176 108.526 347.176 108.163V107.26C347.176 106.897 347.106 106.557 346.967 106.241C346.836 105.924 346.631 105.669 346.353 105.476C346.083 105.275 345.736 105.175 345.311 105.175C344.902 105.175 344.558 105.275 344.28 105.476C344.01 105.669 343.805 105.924 343.666 106.241C343.535 106.557 343.469 106.897 343.469 107.26ZM345.844 96.9274L337.608 110.109L336.403 109.345L344.639 96.1629L345.844 96.9274Z" fill="#0088F0"/>
<path d="M308.91 126.876V126.754C308.91 126.342 308.97 125.959 309.09 125.607C309.21 125.251 309.382 124.942 309.608 124.682C309.834 124.417 310.107 124.213 310.428 124.068C310.749 123.92 311.108 123.846 311.507 123.846C311.908 123.846 312.27 123.92 312.591 124.068C312.915 124.213 313.19 124.417 313.416 124.682C313.645 124.942 313.819 125.251 313.939 125.607C314.059 125.959 314.119 126.342 314.119 126.754V126.876C314.119 127.289 314.059 127.671 313.939 128.024C313.819 128.376 313.645 128.685 313.416 128.949C313.19 129.21 312.917 129.414 312.596 129.562C312.279 129.707 311.919 129.779 311.517 129.779C311.115 129.779 310.754 129.707 310.433 129.562C310.112 129.414 309.837 129.21 309.608 128.949C309.382 128.685 309.21 128.376 309.09 128.024C308.97 127.671 308.91 127.289 308.91 126.876ZM309.888 126.754V126.876C309.888 127.162 309.922 127.431 309.989 127.685C310.056 127.935 310.156 128.158 310.29 128.351C310.428 128.545 310.599 128.699 310.803 128.812C311.008 128.921 311.246 128.975 311.517 128.975C311.785 128.975 312.019 128.921 312.22 128.812C312.425 128.699 312.594 128.545 312.728 128.351C312.862 128.158 312.963 127.935 313.03 127.685C313.1 127.431 313.135 127.162 313.135 126.876V126.754C313.135 126.472 313.1 126.206 313.03 125.956C312.963 125.702 312.86 125.478 312.723 125.284C312.589 125.087 312.42 124.932 312.215 124.819C312.014 124.706 311.778 124.65 311.507 124.65C311.239 124.65 311.002 124.706 310.798 124.819C310.597 124.932 310.428 125.087 310.29 125.284C310.156 125.478 310.056 125.702 309.989 125.956C309.922 126.206 309.888 126.472 309.888 126.754ZM316.324 125.052V131.873H315.34V123.952H316.239L316.324 125.052ZM320.179 126.765V126.876C320.179 127.292 320.13 127.678 320.031 128.034C319.932 128.387 319.788 128.693 319.597 128.954C319.41 129.215 319.18 129.418 318.905 129.562C318.63 129.707 318.314 129.779 317.958 129.779C317.595 129.779 317.274 129.719 316.996 129.599C316.717 129.48 316.481 129.305 316.287 129.076C316.093 128.847 315.938 128.572 315.822 128.251C315.709 127.93 315.631 127.569 315.589 127.167V126.575C315.631 126.152 315.711 125.773 315.827 125.438C315.943 125.103 316.097 124.817 316.287 124.581C316.481 124.341 316.715 124.16 316.99 124.036C317.265 123.909 317.583 123.846 317.942 123.846C318.302 123.846 318.621 123.916 318.899 124.058C319.178 124.195 319.412 124.392 319.603 124.65C319.793 124.907 319.936 125.216 320.031 125.575C320.13 125.931 320.179 126.328 320.179 126.765ZM319.195 126.876V126.765C319.195 126.479 319.165 126.212 319.106 125.961C319.046 125.707 318.952 125.485 318.825 125.295C318.702 125.101 318.543 124.949 318.349 124.84C318.155 124.727 317.925 124.671 317.657 124.671C317.41 124.671 317.195 124.713 317.011 124.798C316.832 124.882 316.678 124.997 316.551 125.142C316.424 125.283 316.32 125.445 316.239 125.628C316.162 125.808 316.104 125.995 316.065 126.189V127.558C316.135 127.805 316.234 128.038 316.361 128.256C316.488 128.471 316.657 128.646 316.869 128.78C317.08 128.91 317.346 128.975 317.667 128.975C317.932 128.975 318.159 128.921 318.349 128.812C318.543 128.699 318.702 128.545 318.825 128.351C318.952 128.158 319.046 127.935 319.106 127.685C319.165 127.431 319.195 127.162 319.195 126.876ZM323.822 123.952V124.703H320.729V123.952H323.822ZM321.776 122.561H322.754V128.256C322.754 128.45 322.784 128.596 322.844 128.695C322.904 128.794 322.982 128.859 323.077 128.891C323.172 128.923 323.274 128.938 323.384 128.938C323.465 128.938 323.549 128.931 323.637 128.917C323.729 128.9 323.798 128.886 323.844 128.875L323.849 129.673C323.771 129.698 323.669 129.721 323.542 129.742C323.419 129.767 323.269 129.779 323.093 129.779C322.853 129.779 322.633 129.732 322.432 129.636C322.231 129.541 322.07 129.383 321.951 129.161C321.834 128.935 321.776 128.632 321.776 128.251V122.561ZM326.033 123.952V129.673H325.049V123.952H326.033ZM324.975 122.434C324.975 122.275 325.023 122.141 325.118 122.032C325.217 121.923 325.361 121.868 325.552 121.868C325.739 121.868 325.881 121.923 325.98 122.032C326.082 122.141 326.133 122.275 326.133 122.434C326.133 122.586 326.082 122.716 325.98 122.825C325.881 122.931 325.739 122.984 325.552 122.984C325.361 122.984 325.217 122.931 325.118 122.825C325.023 122.716 324.975 122.586 324.975 122.434ZM327.344 126.876V126.754C327.344 126.342 327.404 125.959 327.524 125.607C327.644 125.251 327.817 124.942 328.042 124.682C328.268 124.417 328.541 124.213 328.862 124.068C329.183 123.92 329.542 123.846 329.941 123.846C330.343 123.846 330.704 123.92 331.025 124.068C331.349 124.213 331.624 124.417 331.85 124.682C332.079 124.942 332.253 125.251 332.373 125.607C332.493 125.959 332.553 126.342 332.553 126.754V126.876C332.553 127.289 332.493 127.671 332.373 128.024C332.253 128.376 332.079 128.685 331.85 128.949C331.624 129.21 331.351 129.414 331.03 129.562C330.713 129.707 330.353 129.779 329.951 129.779C329.549 129.779 329.188 129.707 328.867 129.562C328.547 129.414 328.272 129.21 328.042 128.949C327.817 128.685 327.644 128.376 327.524 128.024C327.404 127.671 327.344 127.289 327.344 126.876ZM328.323 126.754V126.876C328.323 127.162 328.356 127.431 328.423 127.685C328.49 127.935 328.591 128.158 328.725 128.351C328.862 128.545 329.033 128.699 329.237 128.812C329.442 128.921 329.68 128.975 329.951 128.975C330.219 128.975 330.454 128.921 330.655 128.812C330.859 128.699 331.028 128.545 331.162 128.351C331.296 128.158 331.397 127.935 331.464 127.685C331.534 127.431 331.57 127.162 331.57 126.876V126.754C331.57 126.472 331.534 126.206 331.464 125.956C331.397 125.702 331.295 125.478 331.157 125.284C331.023 125.087 330.854 124.932 330.649 124.819C330.448 124.706 330.212 124.65 329.941 124.65C329.673 124.65 329.437 124.706 329.232 124.819C329.031 124.932 328.862 125.087 328.725 125.284C328.591 125.478 328.49 125.702 328.423 125.956C328.356 126.206 328.323 126.472 328.323 126.754ZM334.758 125.173V129.673H333.78V123.952H334.705L334.758 125.173ZM334.526 126.596L334.118 126.58C334.122 126.189 334.18 125.827 334.293 125.496C334.406 125.161 334.564 124.87 334.769 124.623C334.973 124.377 335.217 124.186 335.499 124.052C335.784 123.915 336.1 123.846 336.445 123.846C336.727 123.846 336.981 123.885 337.207 123.962C337.432 124.036 337.624 124.156 337.783 124.322C337.945 124.488 338.069 124.703 338.153 124.967C338.238 125.228 338.28 125.547 338.28 125.924V129.673H337.297V125.914C337.297 125.614 337.252 125.374 337.164 125.194C337.076 125.011 336.948 124.879 336.778 124.798C336.609 124.713 336.401 124.671 336.154 124.671C335.911 124.671 335.689 124.722 335.488 124.824C335.291 124.927 335.12 125.068 334.975 125.247C334.834 125.427 334.723 125.633 334.642 125.866C334.564 126.095 334.526 126.338 334.526 126.596ZM345.562 121.932V129.673H344.584V123.153L342.611 123.872V122.989L345.408 121.932H345.562Z" fill="#8794BA"/>
<path d="M317.777 174.218C317.777 175.245 317.538 176.118 317.059 176.836C316.588 177.546 315.947 178.087 315.136 178.457C314.333 178.828 313.426 179.013 312.414 179.013C311.402 179.013 310.491 178.828 309.68 178.457C308.869 178.087 308.229 177.546 307.757 176.836C307.286 176.118 307.051 175.245 307.051 174.218C307.051 173.546 307.178 172.932 307.433 172.376C307.696 171.812 308.062 171.322 308.534 170.905C309.012 170.488 309.576 170.168 310.225 169.944C310.881 169.712 311.603 169.596 312.391 169.596C313.426 169.596 314.348 169.797 315.159 170.198C315.97 170.592 316.607 171.137 317.071 171.832C317.542 172.527 317.777 173.322 317.777 174.218ZM315.623 174.172C315.623 173.546 315.487 172.994 315.217 172.515C314.947 172.029 314.569 171.65 314.082 171.38C313.596 171.11 313.032 170.975 312.391 170.975C311.734 170.975 311.167 171.11 310.688 171.38C310.217 171.65 309.85 172.029 309.588 172.515C309.325 172.994 309.194 173.546 309.194 174.172C309.194 174.82 309.321 175.376 309.576 175.84C309.839 176.295 310.209 176.647 310.688 176.894C311.175 177.133 311.75 177.253 312.414 177.253C313.078 177.253 313.65 177.133 314.128 176.894C314.607 176.647 314.974 176.295 315.229 175.84C315.491 175.376 315.623 174.82 315.623 174.172ZM317.383 166.306C317.383 167.125 317.167 167.862 316.735 168.519C316.302 169.175 315.711 169.693 314.962 170.071C314.213 170.449 313.364 170.639 312.414 170.639C311.449 170.639 310.588 170.449 309.831 170.071C309.082 169.693 308.495 169.175 308.07 168.519C307.645 167.862 307.433 167.125 307.433 166.306C307.433 165.326 307.645 164.492 308.07 163.804C308.503 163.117 309.093 162.592 309.842 162.229C310.592 161.866 311.445 161.685 312.402 161.685C313.368 161.685 314.225 161.866 314.974 162.229C315.723 162.592 316.31 163.117 316.735 163.804C317.167 164.492 317.383 165.326 317.383 166.306ZM315.24 166.341C315.24 165.777 315.121 165.279 314.881 164.847C314.642 164.414 314.31 164.075 313.885 163.828C313.46 163.573 312.966 163.445 312.402 163.445C311.839 163.445 311.344 163.565 310.92 163.804C310.503 164.036 310.175 164.368 309.935 164.801C309.703 165.233 309.588 165.747 309.588 166.341C309.588 166.92 309.703 167.426 309.935 167.859C310.175 168.291 310.507 168.627 310.931 168.866C311.356 169.106 311.85 169.225 312.414 169.225C312.978 169.225 313.468 169.106 313.885 168.866C314.31 168.627 314.642 168.291 314.881 167.859C315.121 167.426 315.24 166.92 315.24 166.341ZM331.388 161.916V163.121L324.403 178.782H322.144L329.117 163.677H319.99V161.916H331.388ZM333.646 166.052V165.16C333.646 164.519 333.785 163.936 334.063 163.411C334.341 162.885 334.739 162.465 335.257 162.148C335.774 161.831 336.388 161.673 337.098 161.673C337.824 161.673 338.442 161.831 338.952 162.148C339.469 162.465 339.867 162.885 340.145 163.411C340.423 163.936 340.562 164.519 340.562 165.16V166.052C340.562 166.677 340.423 167.252 340.145 167.777C339.874 168.303 339.481 168.723 338.963 169.04C338.454 169.357 337.84 169.515 337.121 169.515C336.403 169.515 335.782 169.357 335.257 169.04C334.739 168.723 334.341 168.303 334.063 167.777C333.785 167.252 333.646 166.677 333.646 166.052ZM335.257 165.16V166.052C335.257 166.407 335.322 166.743 335.453 167.059C335.592 167.376 335.801 167.635 336.079 167.835C336.357 168.028 336.704 168.125 337.121 168.125C337.538 168.125 337.882 168.028 338.152 167.835C338.423 167.635 338.623 167.376 338.755 167.059C338.886 166.743 338.952 166.407 338.952 166.052V165.16C338.952 164.797 338.882 164.457 338.743 164.14C338.612 163.816 338.407 163.557 338.129 163.364C337.859 163.163 337.515 163.063 337.098 163.063C336.689 163.063 336.345 163.163 336.067 163.364C335.797 163.557 335.592 163.816 335.453 164.14C335.322 164.457 335.257 164.797 335.257 165.16ZM341.859 175.55V174.646C341.859 174.013 341.998 173.434 342.276 172.909C342.554 172.384 342.952 171.963 343.469 171.646C343.987 171.33 344.6 171.171 345.311 171.171C346.037 171.171 346.655 171.33 347.164 171.646C347.682 171.963 348.079 172.384 348.357 172.909C348.635 173.434 348.774 174.013 348.774 174.646V175.55C348.774 176.183 348.635 176.762 348.357 177.287C348.087 177.813 347.693 178.233 347.176 178.55C346.666 178.867 346.052 179.025 345.334 179.025C344.616 179.025 343.998 178.867 343.481 178.55C342.963 178.233 342.562 177.813 342.276 177.287C341.998 176.762 341.859 176.183 341.859 175.55ZM343.469 174.646V175.55C343.469 175.905 343.535 176.245 343.666 176.569C343.805 176.886 344.014 177.145 344.292 177.345C344.57 177.538 344.917 177.635 345.334 177.635C345.751 177.635 346.095 177.538 346.365 177.345C346.643 177.145 346.848 176.886 346.979 176.569C347.11 176.253 347.176 175.913 347.176 175.55V174.646C347.176 174.284 347.106 173.944 346.967 173.627C346.836 173.31 346.631 173.056 346.353 172.863C346.083 172.662 345.736 172.561 345.311 172.561C344.902 172.561 344.558 172.662 344.28 172.863C344.01 173.056 343.805 173.31 343.666 173.627C343.535 173.944 343.469 174.284 343.469 174.646ZM345.844 164.314L337.608 177.496L336.403 176.731L344.639 163.55L345.844 164.314Z" fill="#EF2A82"/>
<path d="M308.91 194.263V194.141C308.91 193.729 308.97 193.346 309.09 192.994C309.21 192.637 309.382 192.329 309.608 192.068C309.834 191.804 310.107 191.599 310.428 191.455C310.749 191.307 311.108 191.233 311.507 191.233C311.908 191.233 312.27 191.307 312.591 191.455C312.915 191.599 313.19 191.804 313.416 192.068C313.645 192.329 313.819 192.637 313.939 192.994C314.059 193.346 314.119 193.729 314.119 194.141V194.263C314.119 194.675 314.059 195.058 313.939 195.41C313.819 195.763 313.645 196.071 313.416 196.336C313.19 196.596 312.917 196.801 312.596 196.949C312.279 197.094 311.919 197.166 311.517 197.166C311.115 197.166 310.754 197.094 310.433 196.949C310.112 196.801 309.837 196.596 309.608 196.336C309.382 196.071 309.21 195.763 309.09 195.41C308.97 195.058 308.91 194.675 308.91 194.263ZM309.888 194.141V194.263C309.888 194.548 309.922 194.818 309.989 195.072C310.056 195.322 310.156 195.544 310.29 195.738C310.428 195.932 310.599 196.085 310.803 196.198C311.008 196.307 311.246 196.362 311.517 196.362C311.785 196.362 312.019 196.307 312.22 196.198C312.425 196.085 312.594 195.932 312.728 195.738C312.862 195.544 312.963 195.322 313.03 195.072C313.1 194.818 313.135 194.548 313.135 194.263V194.141C313.135 193.859 313.1 193.593 313.03 193.343C312.963 193.089 312.86 192.865 312.723 192.671C312.589 192.474 312.42 192.318 312.215 192.206C312.014 192.093 311.778 192.036 311.507 192.036C311.239 192.036 311.002 192.093 310.798 192.206C310.597 192.318 310.428 192.474 310.29 192.671C310.156 192.865 310.056 193.089 309.989 193.343C309.922 193.593 309.888 193.859 309.888 194.141ZM316.324 192.438V199.26H315.34V191.338H316.239L316.324 192.438ZM320.179 194.152V194.263C320.179 194.679 320.13 195.065 320.031 195.421C319.932 195.773 319.788 196.08 319.597 196.341C319.41 196.602 319.18 196.804 318.905 196.949C318.63 197.094 318.314 197.166 317.958 197.166C317.595 197.166 317.274 197.106 316.996 196.986C316.717 196.866 316.481 196.692 316.287 196.463C316.093 196.233 315.938 195.958 315.822 195.638C315.709 195.317 315.631 194.955 315.589 194.554V193.961C315.631 193.538 315.711 193.159 315.827 192.824C315.943 192.489 316.097 192.204 316.287 191.968C316.481 191.728 316.715 191.546 316.99 191.423C317.265 191.296 317.583 191.233 317.942 191.233C318.302 191.233 318.621 191.303 318.899 191.444C319.178 191.582 319.412 191.779 319.603 192.036C319.793 192.294 319.936 192.602 320.031 192.962C320.13 193.318 320.179 193.714 320.179 194.152ZM319.195 194.263V194.152C319.195 193.866 319.165 193.598 319.106 193.348C319.046 193.094 318.952 192.872 318.825 192.682C318.702 192.488 318.543 192.336 318.349 192.227C318.155 192.114 317.925 192.058 317.657 192.058C317.41 192.058 317.195 192.1 317.011 192.184C316.832 192.269 316.678 192.384 316.551 192.528C316.424 192.669 316.32 192.831 316.239 193.015C316.162 193.194 316.104 193.381 316.065 193.575V194.945C316.135 195.192 316.234 195.424 316.361 195.643C316.488 195.858 316.657 196.032 316.869 196.166C317.08 196.297 317.346 196.362 317.667 196.362C317.932 196.362 318.159 196.307 318.349 196.198C318.543 196.085 318.702 195.932 318.825 195.738C318.952 195.544 319.046 195.322 319.106 195.072C319.165 194.818 319.195 194.548 319.195 194.263ZM323.822 191.338V192.089H320.729V191.338H323.822ZM321.776 189.948H322.754V195.643C322.754 195.837 322.784 195.983 322.844 196.082C322.904 196.18 322.982 196.246 323.077 196.277C323.172 196.309 323.274 196.325 323.384 196.325C323.465 196.325 323.549 196.318 323.637 196.304C323.729 196.286 323.798 196.272 323.844 196.262L323.849 197.06C323.771 197.085 323.669 197.108 323.542 197.129C323.419 197.153 323.269 197.166 323.093 197.166C322.853 197.166 322.633 197.118 322.432 197.023C322.231 196.928 322.07 196.769 321.951 196.547C321.834 196.321 321.776 196.018 321.776 195.638V189.948ZM326.033 191.338V197.06H325.049V191.338H326.033ZM324.975 189.821C324.975 189.662 325.023 189.528 325.118 189.419C325.217 189.309 325.361 189.255 325.552 189.255C325.739 189.255 325.881 189.309 325.98 189.419C326.082 189.528 326.133 189.662 326.133 189.821C326.133 189.972 326.082 190.103 325.98 190.212C325.881 190.318 325.739 190.371 325.552 190.371C325.361 190.371 325.217 190.318 325.118 190.212C325.023 190.103 324.975 189.972 324.975 189.821ZM327.344 194.263V194.141C327.344 193.729 327.404 193.346 327.524 192.994C327.644 192.637 327.817 192.329 328.042 192.068C328.268 191.804 328.541 191.599 328.862 191.455C329.183 191.307 329.542 191.233 329.941 191.233C330.343 191.233 330.704 191.307 331.025 191.455C331.349 191.599 331.624 191.804 331.85 192.068C332.079 192.329 332.253 192.637 332.373 192.994C332.493 193.346 332.553 193.729 332.553 194.141V194.263C332.553 194.675 332.493 195.058 332.373 195.41C332.253 195.763 332.079 196.071 331.85 196.336C331.624 196.596 331.351 196.801 331.03 196.949C330.713 197.094 330.353 197.166 329.951 197.166C329.549 197.166 329.188 197.094 328.867 196.949C328.547 196.801 328.272 196.596 328.042 196.336C327.817 196.071 327.644 195.763 327.524 195.41C327.404 195.058 327.344 194.675 327.344 194.263ZM328.323 194.141V194.263C328.323 194.548 328.356 194.818 328.423 195.072C328.49 195.322 328.591 195.544 328.725 195.738C328.862 195.932 329.033 196.085 329.237 196.198C329.442 196.307 329.68 196.362 329.951 196.362C330.219 196.362 330.454 196.307 330.655 196.198C330.859 196.085 331.028 195.932 331.162 195.738C331.296 195.544 331.397 195.322 331.464 195.072C331.534 194.818 331.57 194.548 331.57 194.263V194.141C331.57 193.859 331.534 193.593 331.464 193.343C331.397 193.089 331.295 192.865 331.157 192.671C331.023 192.474 330.854 192.318 330.649 192.206C330.448 192.093 330.212 192.036 329.941 192.036C329.673 192.036 329.437 192.093 329.232 192.206C329.031 192.318 328.862 192.474 328.725 192.671C328.591 192.865 328.49 193.089 328.423 193.343C328.356 193.593 328.323 193.859 328.323 194.141ZM334.758 192.56V197.06H333.78V191.338H334.705L334.758 192.56ZM334.526 193.982L334.118 193.967C334.122 193.575 334.18 193.214 334.293 192.882C334.406 192.548 334.564 192.257 334.769 192.01C334.973 191.763 335.217 191.573 335.499 191.439C335.784 191.301 336.1 191.233 336.445 191.233C336.727 191.233 336.981 191.271 337.207 191.349C337.432 191.423 337.624 191.543 337.783 191.709C337.945 191.874 338.069 192.089 338.153 192.354C338.238 192.615 338.28 192.934 338.28 193.311V197.06H337.297V193.3C337.297 193.001 337.252 192.761 337.164 192.581C337.076 192.398 336.948 192.266 336.778 192.184C336.609 192.1 336.401 192.058 336.154 192.058C335.911 192.058 335.689 192.109 335.488 192.211C335.291 192.313 335.12 192.454 334.975 192.634C334.834 192.814 334.723 193.02 334.642 193.253C334.564 193.482 334.526 193.725 334.526 193.982ZM347.391 196.256V197.06H342.352V196.357L344.874 193.549C345.185 193.203 345.424 192.911 345.594 192.671C345.766 192.428 345.886 192.211 345.953 192.021C346.024 191.827 346.059 191.629 346.059 191.428C346.059 191.174 346.006 190.945 345.9 190.741C345.798 190.533 345.646 190.367 345.445 190.244C345.245 190.12 345.001 190.059 344.716 190.059C344.374 190.059 344.088 190.126 343.859 190.26C343.633 190.39 343.464 190.573 343.351 190.81C343.239 191.046 343.182 191.317 343.182 191.624H342.204C342.204 191.19 342.299 190.794 342.489 190.434C342.68 190.074 342.962 189.789 343.336 189.577C343.709 189.362 344.169 189.255 344.716 189.255C345.202 189.255 345.618 189.341 345.964 189.514C346.309 189.683 346.574 189.923 346.757 190.233C346.944 190.54 347.037 190.899 347.037 191.312C347.037 191.538 346.998 191.767 346.921 191.999C346.847 192.229 346.743 192.458 346.609 192.687C346.478 192.916 346.325 193.142 346.149 193.364C345.976 193.586 345.791 193.804 345.594 194.019L343.531 196.256H347.391Z" fill="#8794BA"/>
<path d="M177.093 95.537C177.041 94.1604 178.116 92.9966 179.493 93.0066C191.491 93.0932 203.166 97.0572 212.756 104.342C223.009 112.131 230.244 123.233 233.229 135.759C236.213 148.284 234.763 161.456 229.124 173.032C223.485 184.607 214.007 193.87 202.305 199.241C190.603 204.611 177.4 205.758 164.947 202.486C152.494 199.214 141.561 191.725 134.01 181.296C126.459 170.866 122.759 158.141 123.538 145.289C124.268 133.268 128.874 121.832 136.631 112.678C137.522 111.627 139.105 111.572 140.115 112.508C141.125 113.445 141.179 115.02 140.293 116.075C133.318 124.379 129.177 134.723 128.518 145.591C127.808 157.291 131.177 168.876 138.051 178.37C144.925 187.865 154.878 194.683 166.215 197.661C177.552 200.64 189.571 199.596 200.224 194.707C210.878 189.817 219.506 181.385 224.639 170.847C229.772 160.309 231.093 148.317 228.376 136.915C225.659 125.512 219.072 115.405 209.738 108.314C201.068 101.728 190.525 98.1234 179.681 97.9973C178.303 97.9812 177.145 96.9136 177.093 95.537Z" fill="#EF2A82"/>
<path d="M176.107 71.9948C176.03 70.0081 177.578 68.3264 179.567 68.3382C195.14 68.4302 210.381 73.0498 223.413 81.6721C237.447 90.9576 248.21 104.416 254.183 120.149C260.156 135.881 261.037 153.092 256.702 169.351C252.367 185.611 243.035 200.099 230.022 210.77C217.01 221.44 200.975 227.754 184.181 228.82C167.387 229.887 150.682 225.652 136.424 216.713C122.167 207.774 111.077 194.583 104.72 179.002C98.8172 164.534 97.2722 148.684 100.232 133.394C100.61 131.442 102.563 130.253 104.496 130.718C106.429 131.183 107.61 133.126 107.24 135.079C104.628 148.901 106.054 163.211 111.386 176.282C117.174 190.467 127.27 202.475 140.249 210.613C153.228 218.75 168.436 222.606 183.725 221.635C199.013 220.664 213.611 214.916 225.457 205.202C237.303 195.488 245.799 182.299 249.745 167.497C253.692 152.694 252.89 137.026 247.452 122.704C242.014 108.382 232.216 96.1299 219.44 87.6766C207.666 79.8868 193.912 75.6858 179.847 75.5406C177.859 75.5201 176.185 73.9815 176.107 71.9948Z" fill="#0088F0"/>
<path d="M171.222 147.5L170.7 147.366L170.957 144.81H173.591V145.413H171.511L171.356 146.809C171.45 146.755 171.568 146.705 171.712 146.658C171.858 146.611 172.024 146.587 172.212 146.587C172.45 146.587 172.663 146.628 172.851 146.711C173.039 146.791 173.198 146.906 173.33 147.056C173.464 147.207 173.566 147.388 173.637 147.599C173.707 147.811 173.742 148.047 173.742 148.308C173.742 148.554 173.708 148.781 173.64 148.988C173.574 149.195 173.475 149.376 173.341 149.531C173.207 149.684 173.037 149.802 172.833 149.887C172.631 149.972 172.392 150.014 172.117 150.014C171.91 150.014 171.714 149.986 171.529 149.929C171.345 149.871 171.181 149.782 171.035 149.665C170.892 149.545 170.774 149.397 170.682 149.221C170.593 149.042 170.537 148.833 170.513 148.593H171.134C171.162 148.786 171.218 148.948 171.303 149.08C171.388 149.211 171.498 149.311 171.634 149.379C171.773 149.445 171.934 149.478 172.117 149.478C172.272 149.478 172.41 149.451 172.53 149.397C172.65 149.343 172.751 149.265 172.833 149.164C172.915 149.063 172.977 148.941 173.02 148.798C173.064 148.654 173.087 148.493 173.087 148.315C173.087 148.153 173.064 148.002 173.02 147.863C172.975 147.725 172.908 147.604 172.819 147.5C172.732 147.397 172.625 147.317 172.498 147.261C172.371 147.202 172.225 147.172 172.061 147.172C171.842 147.172 171.677 147.202 171.564 147.261C171.453 147.319 171.339 147.399 171.222 147.5ZM175.283 147.5L174.761 147.366L175.019 144.81H177.652V145.413H175.572L175.417 146.809C175.511 146.755 175.63 146.705 175.773 146.658C175.919 146.611 176.086 146.587 176.274 146.587C176.511 146.587 176.724 146.628 176.912 146.711C177.1 146.791 177.26 146.906 177.391 147.056C177.525 147.207 177.627 147.388 177.698 147.599C177.768 147.811 177.804 148.047 177.804 148.308C177.804 148.554 177.77 148.781 177.701 148.988C177.636 149.195 177.536 149.376 177.402 149.531C177.268 149.684 177.099 149.802 176.894 149.887C176.692 149.972 176.453 150.014 176.179 150.014C175.972 150.014 175.775 149.986 175.59 149.929C175.406 149.871 175.242 149.782 175.096 149.665C174.953 149.545 174.835 149.397 174.744 149.221C174.654 149.042 174.598 148.833 174.574 148.593H175.195C175.223 148.786 175.28 148.948 175.364 149.08C175.449 149.211 175.559 149.311 175.696 149.379C175.834 149.445 175.995 149.478 176.179 149.478C176.334 149.478 176.471 149.451 176.591 149.397C176.711 149.343 176.812 149.265 176.894 149.164C176.976 149.063 177.039 148.941 177.081 148.798C177.126 148.654 177.148 148.493 177.148 148.315C177.148 148.153 177.126 148.002 177.081 147.863C177.036 147.725 176.969 147.604 176.88 147.5C176.793 147.397 176.686 147.317 176.559 147.261C176.432 147.202 176.287 147.172 176.122 147.172C175.904 147.172 175.738 147.202 175.625 147.261C175.515 147.319 175.401 147.399 175.283 147.5ZM179.947 147.493V148.029H178.227V147.493H179.947ZM183.018 144.803H183.074V145.357H183.018C182.672 145.357 182.383 145.413 182.151 145.526C181.918 145.637 181.733 145.786 181.597 145.974C181.461 146.16 181.362 146.369 181.301 146.601C181.242 146.834 181.213 147.07 181.213 147.31V148.064C181.213 148.292 181.24 148.494 181.294 148.671C181.348 148.845 181.422 148.992 181.516 149.111C181.61 149.231 181.716 149.322 181.833 149.383C181.953 149.444 182.078 149.475 182.207 149.475C182.357 149.475 182.491 149.446 182.609 149.39C182.726 149.331 182.825 149.25 182.905 149.147C182.987 149.041 183.049 148.916 183.092 148.773C183.134 148.63 183.155 148.472 183.155 148.301C183.155 148.148 183.136 148.001 183.099 147.86C183.061 147.717 183.004 147.59 182.926 147.479C182.849 147.366 182.751 147.278 182.634 147.215C182.518 147.149 182.381 147.116 182.221 147.116C182.04 147.116 181.871 147.161 181.713 147.25C181.558 147.337 181.43 147.452 181.329 147.596C181.23 147.737 181.174 147.89 181.16 148.057L180.814 148.054C180.847 147.791 180.908 147.566 180.998 147.38C181.089 147.192 181.202 147.04 181.336 146.922C181.472 146.802 181.624 146.715 181.791 146.661C181.96 146.605 182.139 146.577 182.327 146.577C182.583 146.577 182.804 146.625 182.99 146.721C183.175 146.818 183.328 146.947 183.448 147.109C183.568 147.269 183.656 147.45 183.712 147.652C183.771 147.852 183.8 148.057 183.8 148.269C183.8 148.511 183.766 148.738 183.698 148.949C183.63 149.161 183.528 149.346 183.391 149.506C183.257 149.666 183.092 149.791 182.894 149.88C182.697 149.969 182.468 150.014 182.207 150.014C181.93 150.014 181.688 149.958 181.481 149.845C181.274 149.73 181.102 149.577 180.966 149.386C180.83 149.196 180.727 148.985 180.659 148.752C180.591 148.519 180.557 148.283 180.557 148.043V147.737C180.557 147.375 180.593 147.02 180.666 146.672C180.739 146.324 180.865 146.009 181.044 145.727C181.225 145.445 181.475 145.221 181.794 145.054C182.114 144.887 182.522 144.803 183.018 144.803ZM188.045 148.216V148.752H184.336V148.368L186.635 144.81H187.167L186.596 145.84L185.077 148.216H188.045ZM187.329 144.81V149.943H186.677V144.81H187.329Z" fill="#8794BA"/>
<path d="M75.872 48.6341L73.6064 54.8717H72.6804L75.2892 48.0277H75.8861L75.872 48.6341ZM77.771 54.8717L75.5007 48.6341L75.4866 48.0277H76.0835L78.7017 54.8717H77.771ZM77.6535 52.3381V53.0808H73.8085V52.3381H77.6535ZM82.7818 49.7857H83.5715V54.7636C83.5715 55.2117 83.4806 55.594 83.2988 55.9105C83.1171 56.227 82.8633 56.4667 82.5374 56.6297C82.2146 56.7958 81.8417 56.8788 81.4186 56.8788C81.2431 56.8788 81.0363 56.8506 80.7982 56.7942C80.5631 56.7409 80.3312 56.6485 80.1025 56.5169C79.8769 56.3884 79.6873 56.2145 79.5337 55.9951L79.9897 55.4781C80.2028 55.735 80.4253 55.9137 80.6571 56.0139C80.8922 56.1142 81.1241 56.1643 81.3528 56.1643C81.6286 56.1643 81.8667 56.1126 82.0673 56.0092C82.2679 55.9058 82.423 55.7523 82.5327 55.5486C82.6455 55.348 82.7019 55.1005 82.7019 54.8059V50.9045L82.7818 49.7857ZM79.2799 52.3851V52.2864C79.2799 51.8978 79.3253 51.5453 79.4162 51.2288C79.5102 50.9092 79.6434 50.635 79.8158 50.4062C79.9912 50.1775 80.2028 50.002 80.4503 49.8798C80.6979 49.7544 80.9768 49.6917 81.287 49.6917C81.6067 49.6917 81.8856 49.7481 82.1237 49.8609C82.365 49.9706 82.5687 50.132 82.7348 50.3451C82.904 50.5551 83.0372 50.8089 83.1343 51.1066C83.2315 51.4043 83.2988 51.7412 83.3364 52.1172V52.5496C83.302 52.9226 83.2346 53.2579 83.1343 53.5556C83.0372 53.8533 82.904 54.1071 82.7348 54.317C82.5687 54.527 82.365 54.6884 82.1237 54.8012C81.8824 54.9109 81.6004 54.9657 81.2776 54.9657C80.9736 54.9657 80.6979 54.9015 80.4503 54.773C80.2059 54.6445 79.9959 54.4643 79.8205 54.2324C79.645 54.0005 79.5102 53.7279 79.4162 53.4145C79.3253 53.098 79.2799 52.7549 79.2799 52.3851ZM80.1495 52.2864V52.3851C80.1495 52.639 80.1746 52.8771 80.2247 53.0996C80.278 53.3221 80.3579 53.518 80.4644 53.6872C80.5741 53.8564 80.7136 53.9896 80.8828 54.0867C81.052 54.1807 81.2541 54.2277 81.4891 54.2277C81.7774 54.2277 82.0156 54.1666 82.2036 54.0444C82.3916 53.9222 82.5405 53.7608 82.6502 53.5603C82.763 53.3597 82.8507 53.1419 82.9134 52.9069V51.7741C82.8789 51.6017 82.8257 51.4356 82.7536 51.2758C82.6846 51.1129 82.5938 50.9687 82.4809 50.8434C82.3713 50.7149 82.235 50.613 82.072 50.5378C81.9091 50.4626 81.7179 50.425 81.4985 50.425C81.2604 50.425 81.0551 50.4752 80.8828 50.5754C80.7136 50.6726 80.5741 50.8073 80.4644 50.9797C80.3579 51.1489 80.278 51.3463 80.2247 51.5719C80.1746 51.7944 80.1495 52.0326 80.1495 52.2864ZM87.0029 54.9657C86.6487 54.9657 86.3275 54.9062 86.0392 54.7871C85.7541 54.6649 85.5081 54.4941 85.3013 54.2747C85.0976 54.0554 84.9409 53.7953 84.8312 53.4945C84.7215 53.1936 84.6667 52.8646 84.6667 52.5073V52.3099C84.6667 51.8963 84.7278 51.5281 84.85 51.2053C84.9722 50.8794 85.1383 50.6036 85.3483 50.378C85.5582 50.1524 85.7964 49.9816 86.0627 49.8656C86.3291 49.7497 86.6049 49.6917 86.89 49.6917C87.2535 49.6917 87.5669 49.7544 87.8301 49.8798C88.0965 50.0051 88.3143 50.1806 88.4835 50.4062C88.6527 50.6287 88.7781 50.8919 88.8596 51.1959C88.941 51.4967 88.9818 51.8258 88.9818 52.183V52.5731H85.1837V51.8634H88.1122V51.7976C88.0996 51.5719 88.0526 51.3526 87.9712 51.1395C87.8928 50.9264 87.7675 50.7509 87.5951 50.613C87.4228 50.4752 87.1877 50.4062 86.89 50.4062C86.6926 50.4062 86.5109 50.4485 86.3448 50.5331C86.1787 50.6146 86.0361 50.7368 85.917 50.8998C85.798 51.0627 85.7055 51.2617 85.6397 51.4967C85.5739 51.7318 85.541 52.0028 85.541 52.3099V52.5073C85.541 52.7486 85.5739 52.9758 85.6397 53.1889C85.7086 53.3989 85.8074 53.5838 85.9358 53.7436C86.0674 53.9034 86.2257 54.0287 86.4106 54.1196C86.5986 54.2105 86.8117 54.2559 87.0499 54.2559C87.357 54.2559 87.6171 54.1933 87.8301 54.0679C88.0432 53.9426 88.2297 53.7749 88.3895 53.565L88.916 53.9833C88.8063 54.1494 88.6668 54.3076 88.4976 54.4581C88.3284 54.6085 88.12 54.7307 87.8724 54.8247C87.628 54.9187 87.3382 54.9657 87.0029 54.9657ZM92.9584 53.5227C92.9584 53.3973 92.9302 53.2814 92.8738 53.1748C92.8205 53.0651 92.7093 52.9664 92.5401 52.8787C92.374 52.7878 92.1233 52.7095 91.788 52.6437C91.5059 52.5841 91.2506 52.5136 91.0218 52.4321C90.7962 52.3507 90.6034 52.2519 90.4436 52.136C90.2869 52.0201 90.1663 51.8837 90.0817 51.7271C89.9971 51.5704 89.9548 51.3871 89.9548 51.1771C89.9548 50.9765 89.9986 50.787 90.0864 50.6083C90.1773 50.4297 90.3042 50.2715 90.4671 50.1336C90.6332 49.9957 90.8322 49.8876 91.0641 49.8092C91.296 49.7309 91.5545 49.6917 91.8397 49.6917C92.2471 49.6917 92.5949 49.7638 92.8832 49.908C93.1715 50.0521 93.3924 50.2448 93.546 50.4861C93.6995 50.7243 93.7763 50.9891 93.7763 51.2805H92.9067C92.9067 51.1395 92.8644 51.0032 92.7798 50.8716C92.6983 50.7368 92.5777 50.6256 92.4179 50.5378C92.2612 50.4501 92.0684 50.4062 91.8397 50.4062C91.5984 50.4062 91.4025 50.4438 91.2521 50.519C91.1048 50.5911 90.9967 50.6835 90.9278 50.7964C90.862 50.9092 90.8291 51.0282 90.8291 51.1536C90.8291 51.2476 90.8447 51.3322 90.8761 51.4074C90.9106 51.4795 90.9701 51.5469 91.0547 51.6095C91.1393 51.6691 91.2584 51.7255 91.4119 51.7788C91.5655 51.832 91.7613 51.8853 91.9995 51.9386C92.4163 52.0326 92.7594 52.1454 93.0289 52.277C93.2984 52.4086 93.499 52.57 93.6306 52.7612C93.7622 52.9523 93.828 53.1842 93.828 53.4568C93.828 53.6793 93.781 53.883 93.687 54.0679C93.5961 54.2528 93.4629 54.4126 93.2874 54.5474C93.1151 54.679 92.9083 54.7824 92.667 54.8576C92.4288 54.9297 92.1609 54.9657 91.8632 54.9657C91.4151 54.9657 91.0359 54.8858 90.7257 54.726C90.4154 54.5662 90.1804 54.3593 90.0206 54.1055C89.8608 53.8517 89.7809 53.5838 89.7809 53.3017H90.6552C90.6677 53.5399 90.7366 53.7295 90.862 53.8705C90.9873 54.0084 91.1409 54.1071 91.3226 54.1666C91.5044 54.223 91.6846 54.2512 91.8632 54.2512C92.1013 54.2512 92.3003 54.2199 92.4602 54.1572C92.6231 54.0946 92.7469 54.0084 92.8315 53.8987C92.9161 53.789 92.9584 53.6637 92.9584 53.5227Z" fill="#8794BA"/>
<defs>
<filter id="filter0_d_535_1066" x="0.618341" y="0.843195" width="435.763" height="321.447" filterUnits="userSpaceOnUse" color-interpolation-filters="sRGB">
<feFlood flood-opacity="0" result="BackgroundImageFix"/>
<feColorMatrix in="SourceAlpha" type="matrix" values="0 0 0 0 0 0 0 0 0 0 0 0 0 0 0 0 0 0 127 0" result="hardAlpha"/>
<feMorphology radius="16.0207" operator="erode" in="SourceAlpha" result="effect1_dropShadow_535_1066"/>
<feOffset dy="19.2249"/>
<feGaussianBlur stdDeviation="26.7012"/>
<feColorMatrix type="matrix" values="0 0 0 0 0.0996452 0 0 0 0 0.164326 0 0 0 0 0.350284 0 0 0 0.2 0"/>
<feBlend mode="normal" in2="BackgroundImageFix" result="effect1_dropShadow_535_1066"/>
<feBlend mode="normal" in="SourceGraphic" in2="effect1_dropShadow_535_1066" result="shape"/>
</filter>
</defs>
</svg>
